<svg width="702" height="271" viewBox="0 0 702 271" fill="none" xmlns="http://www.w3.org/2000/svg">
<line x1="20" y1="-20" x2="80" y2="-20" transform="matrix(1 0 0 -1 0 231)" stroke="#64DFDF" stroke-width="40" stroke-linecap="round" stroke-linejoin="round"/>
<line y1="-5" x2="100" y2="-5" transform="matrix(1 -8.74228e-08 -8.74228e-08 -1 100 245)" stroke="#64DFDF" stroke-width="10"/>
<line y1="-5" x2="100" y2="-5" transform="matrix(0.707107 -0.707107 -0.707107 -0.707107 193.289 248.711)" stroke="#64DFDF" stroke-width="10"/>
<line x1="5" y1="-5" x2="431" y2="-5" transform="matrix(1 -8.74228e-08 -8.74228e-08 -1 264 178)" stroke="#64DFDF" stroke-width="10" stroke-linecap="round"/>
<line x1="363" y1="226" x2="691" y2="226" stroke="#80FFDB" stroke-width="10" stroke-linecap="round"/>
<path d="M412.312 23.6H435.208C440.68 23.6 445.504 24.656 449.68 26.768C453.904 28.832 457.168 31.76 459.472 35.552C461.824 39.344 463 43.76 463 48.8C463 53.84 461.824 58.256 459.472 62.048C457.168 65.84 453.904 68.792 449.68 70.904C445.504 72.968 440.68 74 435.208 74H412.312V23.6ZM434.632 64.424C439.672 64.424 443.68 63.032 446.656 60.248C449.68 57.416 451.192 53.6 451.192 48.8C451.192 44 449.68 40.208 446.656 37.424C443.68 34.592 439.672 33.176 434.632 33.176H423.976V64.424H434.632ZM508.948 54.776C508.948 54.92 508.876 55.928 508.732 57.8H479.428C479.956 60.2 481.204 62.096 483.172 63.488C485.14 64.88 487.588 65.576 490.516 65.576C492.532 65.576 494.308 65.288 495.844 64.712C497.428 64.088 498.892 63.128 500.236 61.832L506.212 68.312C502.564 72.488 497.236 74.576 490.228 74.576C485.86 74.576 481.996 73.736 478.636 72.056C475.276 70.328 472.684 67.952 470.86 64.928C469.036 61.904 468.124 58.472 468.124 54.632C468.124 50.84 469.012 47.432 470.788 44.408C472.612 41.336 475.084 38.96 478.204 37.28C481.372 35.552 484.9 34.688 488.788 34.688C492.58 34.688 496.012 35.504 499.084 37.136C502.156 38.768 504.556 41.12 506.284 44.192C508.06 47.216 508.948 50.744 508.948 54.776ZM488.86 43.184C486.316 43.184 484.18 43.904 482.452 45.344C480.724 46.784 479.668 48.752 479.284 51.248H498.364C497.98 48.8 496.924 46.856 495.196 45.416C493.468 43.928 491.356 43.184 488.86 43.184ZM554.171 35.264L537.827 74H526.235L509.963 35.264H521.555L532.283 61.616L543.371 35.264H554.171ZM583.673 74.864C578.441 74.864 573.713 73.736 569.489 71.48C565.313 69.224 562.025 66.128 559.625 62.192C557.273 58.208 556.097 53.744 556.097 48.8C556.097 43.856 557.273 39.416 559.625 35.48C562.025 31.496 565.313 28.376 569.489 26.12C573.713 23.864 578.441 22.736 583.673 22.736C588.905 22.736 593.609 23.864 597.785 26.12C601.961 28.376 605.249 31.496 607.649 35.48C610.049 39.416 611.249 43.856 611.249 48.8C611.249 53.744 610.049 58.208 607.649 62.192C605.249 66.128 601.961 69.224 597.785 71.48C593.609 73.736 588.905 74.864 583.673 74.864ZM583.673 64.928C586.649 64.928 589.337 64.256 591.737 62.912C594.137 61.52 596.009 59.6 597.353 57.152C598.745 54.704 599.441 51.92 599.441 48.8C599.441 45.68 598.745 42.896 597.353 40.448C596.009 38 594.137 36.104 591.737 34.76C589.337 33.368 586.649 32.672 583.673 32.672C580.697 32.672 578.009 33.368 575.609 34.76C573.209 36.104 571.313 38 569.921 40.448C568.577 42.896 567.905 45.68 567.905 48.8C567.905 51.92 568.577 54.704 569.921 57.152C571.313 59.6 573.209 61.52 575.609 62.912C578.009 64.256 580.697 64.928 583.673 64.928ZM642.119 34.688C645.719 34.688 648.983 35.528 651.911 37.208C654.887 38.84 657.215 41.168 658.895 44.192C660.575 47.168 661.415 50.648 661.415 54.632C661.415 58.616 660.575 62.12 658.895 65.144C657.215 68.12 654.887 70.448 651.911 72.128C648.983 73.76 645.719 74.576 642.119 74.576C637.175 74.576 633.287 73.016 630.455 69.896V87.968H619.223V35.264H629.951V39.728C632.735 36.368 636.791 34.688 642.119 34.688ZM640.175 65.36C643.055 65.36 645.407 64.4 647.231 62.48C649.103 60.512 650.039 57.896 650.039 54.632C650.039 51.368 649.103 48.776 647.231 46.856C645.407 44.888 643.055 43.904 640.175 43.904C637.295 43.904 634.919 44.888 633.047 46.856C631.223 48.776 630.311 51.368 630.311 54.632C630.311 57.896 631.223 60.512 633.047 62.48C634.919 64.4 637.295 65.36 640.175 65.36ZM681.966 74.576C678.75 74.576 675.606 74.192 672.534 73.424C669.462 72.608 667.014 71.6 665.19 70.4L668.934 62.336C670.662 63.44 672.75 64.352 675.198 65.072C677.646 65.744 680.046 66.08 682.398 66.08C687.15 66.08 689.526 64.904 689.526 62.552C689.526 61.448 688.878 60.656 687.582 60.176C686.286 59.696 684.294 59.288 681.606 58.952C678.438 58.472 675.822 57.92 673.758 57.296C671.694 56.672 669.894 55.568 668.358 53.984C666.87 52.4 666.126 50.144 666.126 47.216C666.126 44.768 666.822 42.608 668.214 40.736C669.654 38.816 671.718 37.328 674.406 36.272C677.142 35.216 680.358 34.688 684.054 34.688C686.79 34.688 689.502 35 692.19 35.624C694.926 36.2 697.182 37.016 698.958 38.072L695.214 46.064C691.806 44.144 688.086 43.184 684.054 43.184C681.654 43.184 679.854 43.52 678.654 44.192C677.454 44.864 676.854 45.728 676.854 46.784C676.854 47.984 677.502 48.824 678.798 49.304C680.094 49.784 682.158 50.24 684.99 50.672C688.158 51.2 690.75 51.776 692.766 52.4C694.782 52.976 696.534 54.056 698.022 55.64C699.51 57.224 700.254 59.432 700.254 62.264C700.254 64.664 699.534 66.8 698.094 68.672C696.654 70.544 694.542 72.008 691.758 73.064C689.022 74.072 685.758 74.576 681.966 74.576Z" fill="#64DFDF"/>
</svg>
