<svg width="702" height="271" viewBox="0 0 702 271" fill="none" xmlns="http://www.w3.org/2000/svg">
<line x1="20" y1="-20" x2="80" y2="-20" transform="matrix(1 0 0 -1 0 231)" stroke="#64DFDF" stroke-width="40" stroke-linecap="round" stroke-linejoin="round"/>
<line y1="-5" x2="100" y2="-5" transform="matrix(1 -8.74228e-08 -8.74228e-08 -1 100 245)" stroke="#64DFDF" stroke-width="10"/>
<line y1="-5" x2="100" y2="-5" transform="matrix(0.707107 -0.707107 -0.707107 -0.707107 193.289 248.711)" stroke="#64DFDF" stroke-width="10"/>
<line x1="5" y1="-5" x2="431" y2="-5" transform="matrix(1 -8.74228e-08 -8.74228e-08 -1 264 178)" stroke="#64DFDF" stroke-width="10" stroke-linecap="round"/>
<line x1="363" y1="226" x2="691" y2="226" stroke="#80FFDB" stroke-width="10" stroke-linecap="round"/>
<path d="M438.895 63.2H415.495L411.031 74H399.079L421.543 23.6H433.063L455.599 74H443.359L438.895 63.2ZM435.223 54.344L427.231 35.048L419.239 54.344H435.223ZM483.58 34.688C488.38 34.688 492.244 36.128 495.172 39.008C498.148 41.888 499.636 46.16 499.636 51.824V74H488.404V53.552C488.404 50.48 487.732 48.2 486.388 46.712C485.044 45.176 483.1 44.408 480.556 44.408C477.724 44.408 475.468 45.296 473.788 47.072C472.108 48.8 471.268 51.392 471.268 54.848V74H460.036V35.264H470.764V39.8C472.252 38.168 474.1 36.92 476.308 36.056C478.516 35.144 480.94 34.688 483.58 34.688ZM550.199 35.264V67.52C550.199 74.624 548.351 79.904 544.655 83.36C540.959 86.816 535.559 88.544 528.455 88.544C524.711 88.544 521.159 88.088 517.799 87.176C514.439 86.264 511.655 84.944 509.447 83.216L513.911 75.152C515.543 76.496 517.607 77.552 520.103 78.32C522.599 79.136 525.095 79.544 527.591 79.544C531.479 79.544 534.335 78.656 536.159 76.88C538.031 75.152 538.967 72.512 538.967 68.96V67.304C536.039 70.52 531.959 72.128 526.727 72.128C523.175 72.128 519.911 71.36 516.935 69.824C514.007 68.24 511.679 66.032 509.951 63.2C508.223 60.368 507.359 57.104 507.359 53.408C507.359 49.712 508.223 46.448 509.951 43.616C511.679 40.784 514.007 38.6 516.935 37.064C519.911 35.48 523.175 34.688 526.727 34.688C532.343 34.688 536.615 36.536 539.543 40.232V35.264H550.199ZM528.959 62.912C531.935 62.912 534.359 62.048 536.231 60.32C538.151 58.544 539.111 56.24 539.111 53.408C539.111 50.576 538.151 48.296 536.231 46.568C534.359 44.792 531.935 43.904 528.959 43.904C525.983 43.904 523.535 44.792 521.615 46.568C519.695 48.296 518.735 50.576 518.735 53.408C518.735 56.24 519.695 58.544 521.615 60.32C523.535 62.048 525.983 62.912 528.959 62.912ZM599.677 35.264V74H589.021V69.392C587.533 71.072 585.757 72.368 583.693 73.28C581.629 74.144 579.397 74.576 576.997 74.576C571.909 74.576 567.877 73.112 564.901 70.184C561.925 67.256 560.437 62.912 560.437 57.152V35.264H571.669V55.496C571.669 61.736 574.285 64.856 579.517 64.856C582.205 64.856 584.365 63.992 585.997 62.264C587.629 60.488 588.445 57.872 588.445 54.416V35.264H599.677ZM610.082 20.576H621.314V74H610.082V20.576ZM647.363 34.688C653.363 34.688 657.971 36.128 661.187 39.008C664.403 41.84 666.011 46.136 666.011 51.896V74H655.499V69.176C653.387 72.776 649.451 74.576 643.691 74.576C640.715 74.576 638.123 74.072 635.915 73.064C633.755 72.056 632.099 70.664 630.947 68.888C629.795 67.112 629.219 65.096 629.219 62.84C629.219 59.24 630.563 56.408 633.251 54.344C635.987 52.28 640.187 51.248 645.851 51.248H654.779C654.779 48.8 654.035 46.928 652.547 45.632C651.059 44.288 648.827 43.616 645.851 43.616C643.787 43.616 641.747 43.952 639.731 44.624C637.763 45.248 636.083 46.112 634.691 47.216L630.659 39.368C632.771 37.88 635.291 36.728 638.219 35.912C641.195 35.096 644.243 34.688 647.363 34.688ZM646.499 67.016C648.419 67.016 650.123 66.584 651.611 65.72C653.099 64.808 654.155 63.488 654.779 61.76V57.8H647.075C642.467 57.8 640.163 59.312 640.163 62.336C640.163 63.776 640.715 64.928 641.819 65.792C642.971 66.608 644.531 67.016 646.499 67.016ZM686.904 40.376C688.248 38.504 690.048 37.088 692.304 36.128C694.608 35.168 697.248 34.688 700.224 34.688V45.056C698.976 44.96 698.136 44.912 697.704 44.912C694.488 44.912 691.968 45.824 690.144 47.648C688.32 49.424 687.408 52.112 687.408 55.712V74H676.176V35.264H686.904V40.376Z" fill="#64DFDF"/>
</svg>
