<svg width="731" height="610" viewBox="0 0 731 610" fill="none" xmlns="http://www.w3.org/2000/svg">
<g clip-path="url(#clip0)">
<path d="M364.632 130.785C369.707 134.418 375.251 137.348 381.112 139.495C382.631 140.065 384.172 140.589 385.721 141.06H454.419C454.715 140.536 455.012 140.02 455.308 139.495C461.246 128.932 466.684 117.951 468.203 106.005C469.987 91.9555 464.983 76.0455 452.612 69.1423C450.99 68.2396 449.273 67.5188 447.493 66.9932C446.756 66.7729 446.005 66.5907 445.245 66.4312C440.608 65.402 435.78 65.6264 431.258 67.0814C426.737 68.5364 422.684 71.1694 419.517 74.7098C416.351 78.2501 414.184 82.5701 413.24 87.2254C412.296 91.8807 412.609 96.7034 414.147 101.198C403.659 90.4442 405.619 73.0078 409.233 58.4344C412.856 43.8534 417.245 27.6397 409.871 14.5472C405.778 7.26433 398.571 2.73815 390.491 0.923155C390.24 0.869995 389.989 0.816815 389.746 0.763655C380.113 -1.18383 370.099 0.570565 361.701 5.67712C346.246 15.4206 338.303 33.8898 335.728 51.9869C331.575 81.1033 340.763 113.592 364.632 130.785Z" fill="#6930C3"/>
<path d="M439.648 75.7038C433.941 87.3022 432.12 100.43 434.454 113.143C436.272 122.744 440.342 131.775 446.331 139.495C446.741 140.019 447.159 140.543 447.592 141.06H450.432C449.976 140.543 449.528 140.027 449.096 139.495C443.726 132.999 439.818 125.422 437.636 117.281C435.454 109.139 435.05 100.624 436.451 92.3124C438.088 83.1214 441.872 74.4466 447.493 66.9932C446.757 66.7729 446.005 66.5906 445.245 66.4312C443.108 69.35 441.235 72.4531 439.648 75.7038Z" fill="white"/>
<path d="M371.406 84.1184C372.017 90.5401 373.559 96.8386 375.986 102.815C378.225 108.104 381.24 113.028 384.932 117.427C392.61 126.414 402.335 133.425 413.288 137.871C414.663 138.448 416.061 138.995 417.458 139.496C419.007 140.058 420.566 140.579 422.136 141.06H430.596C428.523 140.597 426.472 140.08 424.437 139.496C419.41 138.072 414.516 136.215 409.811 133.944C399.634 129.121 390.798 121.872 384.081 112.832C376.874 102.891 373.692 90.9304 373.153 78.772C372.729 65.6757 374.101 52.5831 377.231 39.8592C380.261 26.8833 384.87 14.3276 390.954 2.47266C391.09 2.20427 391.118 1.8939 391.032 1.60561C390.945 1.31733 390.752 1.07314 390.491 0.92344C390.383 0.848842 390.262 0.796324 390.134 0.768944C390.007 0.741564 389.875 0.739873 389.746 0.763955C389.62 0.799463 389.503 0.861994 389.403 0.947228C389.304 1.03246 389.224 1.13835 389.169 1.25755C388.417 2.72328 387.681 4.18897 386.974 5.66985C381.076 18.0159 376.732 31.0458 374.041 44.4613C371.437 57.4019 370.039 70.9348 371.406 84.1184Z" fill="white"/>
<path d="M201.015 275.076C185.551 275.076 173.015 262.54 173.015 247.076C173.015 231.612 185.551 219.076 201.015 219.076C216.479 219.076 229.015 231.612 229.015 247.076C229.015 262.54 216.479 275.076 201.015 275.076Z" fill="#2F2E41"/>
<path d="M207.657 596.582L219.916 596.581L225.749 549.293L207.654 549.294L207.657 596.582Z" fill="#A0616A"/>
<path d="M204.53 608.466L244.06 608.464V607.964C244.06 605.944 243.662 603.943 242.889 602.076C242.116 600.209 240.982 598.513 239.554 597.085C238.125 595.656 236.429 594.522 234.562 593.749C232.695 592.976 230.694 592.578 228.674 592.578H228.673L204.529 592.579L204.53 608.466Z" fill="#2F2E41"/>
<path d="M125.084 586.134L136.77 589.84L156.625 546.527L139.377 541.058L125.084 586.134Z" fill="#A0616A"/>
<path d="M118.511 596.517L156.192 608.466L156.343 607.989C156.954 606.063 157.18 604.036 157.007 602.022C156.834 600.009 156.267 598.05 155.337 596.256C154.407 594.462 153.132 592.869 151.587 591.568C150.041 590.266 148.254 589.282 146.328 588.672L146.327 588.671L123.313 581.374L118.511 596.517Z" fill="#2F2E41"/>
<path d="M208.679 584.076H219.167C220.223 584.077 221.246 583.706 222.056 583.028C222.866 582.35 223.411 581.408 223.596 580.368L248.597 409.556L174.141 412.089L126.259 568.948C126.088 569.568 126.051 570.218 126.152 570.853C126.253 571.489 126.489 572.095 126.845 572.631C127.2 573.168 127.666 573.622 128.212 573.963C128.757 574.304 129.37 574.523 130.008 574.607L143.523 579.728C144.479 579.844 145.447 579.649 146.284 579.172C147.12 578.694 147.78 577.959 148.166 577.076L206.721 444.411C206.862 444.092 207.11 443.831 207.422 443.675C207.735 443.519 208.092 443.477 208.432 443.556C208.772 443.634 209.074 443.829 209.286 444.107C209.498 444.385 209.606 444.727 209.592 445.076L204.183 579.395C204.159 580 204.257 580.605 204.472 581.172C204.687 581.738 205.014 582.256 205.434 582.693C205.854 583.13 206.358 583.478 206.916 583.716C207.473 583.954 208.073 584.076 208.679 584.076Z" fill="#2F2E41"/>
<path d="M200.519 278.905C186.954 278.905 175.958 267.908 175.958 254.344C175.958 240.779 186.954 229.783 200.519 229.783C214.084 229.783 225.08 240.779 225.08 254.344C225.08 267.908 214.084 278.905 200.519 278.905Z" fill="#A0616A"/>
<path d="M203.808 429.14C216.513 429.141 231.786 425.931 248.174 415.684C249.018 415.156 249.664 414.365 250.011 413.432C250.359 412.5 250.389 411.479 250.096 410.528L234.015 358.502L234.216 316.168C233.595 309.396 230.847 302.994 226.366 297.878C221.885 292.762 215.9 289.196 209.268 287.689C208.977 287.621 208.683 287.557 208.386 287.492C203.397 286.392 198.215 286.524 193.288 287.878C188.362 289.232 183.84 291.766 180.114 295.262C176.293 298.789 173.376 303.183 171.609 308.074C169.842 312.964 169.277 318.208 169.961 323.363L174.012 385.549L168.515 416.698C168.344 417.641 168.48 418.614 168.903 419.474C169.327 420.333 170.016 421.034 170.868 421.472C181.101 426.559 192.381 429.184 203.808 429.14Z" fill="#6930C3"/>
<path d="M221.898 379.372C222.402 379.145 222.924 378.957 223.458 378.811L239.195 331.781L231.227 322.745L243.292 308.937L258.954 323.563C260.219 324.744 261.067 326.304 261.37 328.009C261.673 329.713 261.415 331.47 260.635 333.015L235.203 383.38C236.326 385.192 236.871 387.303 236.765 389.432C236.659 391.561 235.907 393.607 234.61 395.299C233.313 396.99 231.531 398.247 229.503 398.901C227.474 399.555 225.294 399.576 223.253 398.962C221.212 398.347 219.406 397.125 218.077 395.459C216.747 393.793 215.956 391.762 215.809 389.635C215.662 387.508 216.165 385.387 217.253 383.554C218.341 381.721 219.961 380.262 221.898 379.372V379.372Z" fill="#A0616A"/>
<path d="M240.06 330.14L254.931 312.953C255.354 312.464 255.667 311.89 255.848 311.269C256.029 310.648 256.074 309.996 255.98 309.356C255.886 308.716 255.656 308.104 255.304 307.561C254.952 307.019 254.488 306.558 253.942 306.211L234.819 294.056C232.305 291.906 229.041 290.84 225.742 291.092C222.442 291.345 219.378 292.895 217.221 295.404C215.063 297.912 213.988 301.174 214.232 304.473C214.475 307.773 216.018 310.841 218.52 313.006L233.245 330.131C233.667 330.621 234.19 331.015 234.777 331.285C235.365 331.555 236.004 331.695 236.65 331.696C237.297 331.697 237.936 331.558 238.525 331.29C239.113 331.021 239.636 330.629 240.06 330.14V330.14Z" fill="#6930C3"/>
<path d="M230.034 230.869C231.981 231.95 233.685 233.421 235.038 235.19C236.227 237.014 236.469 239.554 234.984 241.18C233.229 243.102 230.055 242.969 227.363 242.672L200.003 239.657L210.774 247.257L184.88 244.673C180.355 244.222 175.14 243.365 172.935 239.662C170.348 235.317 173.641 229.923 177.576 226.566C185.527 219.965 195.708 216.667 206.02 217.352C216.269 218.019 225.856 222.649 232.751 230.263L230.034 230.869Z" fill="#2F2E41"/>
<path d="M202.661 362.151H202.963V353.869C202.963 352.598 203.468 351.379 204.367 350.48C205.266 349.581 206.485 349.076 207.756 349.076H225.302C226.573 349.076 227.792 349.581 228.691 350.48C229.59 351.379 230.095 352.598 230.095 353.869V399.302C230.095 400.573 229.59 401.792 228.691 402.691C227.792 403.59 226.573 404.095 225.302 404.095H207.756C206.485 404.095 205.266 403.59 204.367 402.691C203.468 401.792 202.963 400.573 202.963 399.302V368.045H202.661L202.661 362.151Z" fill="#3F3D56"/>
<path d="M217.015 368.076C214.806 368.076 213.015 366.285 213.015 364.076C213.015 361.867 214.806 360.076 217.015 360.076C219.224 360.076 221.015 361.867 221.015 364.076C221.015 366.285 219.224 368.076 217.015 368.076Z" fill="white"/>
<path d="M213.144 375.213C212.594 375.272 212.049 375.373 211.515 375.517L174.173 342.881L176.485 331.057L159.096 325.236L152.97 345.771C152.475 347.43 152.531 349.205 153.131 350.829C153.73 352.453 154.841 353.839 156.295 354.778L203.687 385.394C203.633 387.525 204.23 389.622 205.397 391.406C206.564 393.19 208.246 394.576 210.22 395.38C212.194 396.185 214.366 396.369 216.448 395.909C218.529 395.448 220.421 394.365 221.872 392.803C223.322 391.242 224.263 389.275 224.569 387.166C224.875 385.056 224.532 382.903 223.584 380.994C222.637 379.084 221.13 377.508 219.266 376.476C217.401 375.443 215.266 375.003 213.144 375.213V375.213Z" fill="#A0616A"/>
<path d="M176.327 341.521C176.884 341.194 177.365 340.751 177.736 340.221C178.106 339.691 178.358 339.087 178.474 338.451L182.53 316.233C183.597 313.1 183.378 309.673 181.921 306.702C180.464 303.731 177.889 301.459 174.759 300.385C171.63 299.31 168.202 299.52 165.227 300.969C162.252 302.418 159.974 304.987 158.891 308.114L148.529 328.265C148.233 328.84 148.065 329.472 148.036 330.118C148.006 330.764 148.116 331.409 148.359 332.008C148.601 332.608 148.97 333.148 149.439 333.592C149.909 334.036 150.469 334.374 151.082 334.582L172.598 341.902C173.211 342.11 173.861 342.184 174.504 342.119C175.148 342.053 175.769 341.849 176.327 341.521Z" fill="#6930C3"/>
<path d="M357.272 276.41H530.662C534.905 276.41 538.975 278.096 541.975 281.096C544.976 284.097 546.662 288.167 546.662 292.41C546.662 296.654 544.976 300.723 541.975 303.724C538.975 306.724 534.905 308.41 530.662 308.41H375.122L362.442 327.9C362.169 328.334 361.792 328.691 361.344 328.94C360.897 329.188 360.393 329.319 359.882 329.32C359.574 329.321 359.267 329.277 358.972 329.19C358.326 329.009 357.759 328.62 357.357 328.082C356.956 327.545 356.743 326.891 356.752 326.22V308.4C352.555 308.264 348.581 306.484 345.685 303.444C342.79 300.404 341.205 296.347 341.274 292.149C341.342 287.952 343.057 283.949 346.05 281.004C349.043 278.06 353.073 276.41 357.272 276.41V276.41ZM357.272 306.35H358.821V326.22C358.82 326.443 358.89 326.66 359.023 326.839C359.155 327.017 359.342 327.148 359.556 327.212C359.769 327.275 359.997 327.267 360.206 327.189C360.414 327.111 360.592 326.968 360.712 326.78L373.991 306.35H530.662C534.358 306.35 537.902 304.882 540.515 302.269C543.129 299.655 544.597 296.111 544.597 292.415C544.597 288.719 543.129 285.175 540.515 282.562C537.902 279.948 534.358 278.48 530.662 278.48H357.272C353.576 278.48 350.031 279.948 347.418 282.562C344.805 285.175 343.337 288.719 343.337 292.415C343.337 296.111 344.805 299.655 347.418 302.269C350.031 304.882 353.576 306.35 357.272 306.35Z" fill="#3F3D56"/>
<path d="M433.642 208.3H714.372C718.614 208.3 722.682 209.985 725.682 212.985C728.682 215.984 730.367 220.053 730.367 224.295C730.367 228.537 728.682 232.605 725.682 235.605C722.682 238.605 718.614 240.29 714.372 240.29H711.792V259.13C711.802 259.799 711.591 260.453 711.191 260.99C710.792 261.528 710.226 261.918 709.582 262.1C709.283 262.186 708.973 262.23 708.662 262.23C708.151 262.23 707.648 262.101 707.2 261.855C706.752 261.608 706.374 261.252 706.102 260.82L692.762 240.29H433.642C429.4 240.29 425.331 238.605 422.332 235.605C419.332 232.605 417.647 228.537 417.647 224.295C417.647 220.053 419.332 215.984 422.332 212.985C425.331 209.985 429.4 208.3 433.642 208.3ZM433.642 238.23H693.882L707.832 259.69C707.953 259.877 708.131 260.02 708.34 260.098C708.549 260.175 708.777 260.183 708.991 260.12C709.205 260.057 709.392 259.926 709.526 259.748C709.659 259.57 709.732 259.353 709.732 259.13V238.23H714.372C718.068 238.23 721.612 236.762 724.225 234.148C726.839 231.535 728.307 227.991 728.307 224.295C728.307 220.599 726.839 217.055 724.225 214.441C721.612 211.828 718.068 210.36 714.372 210.36H433.642C429.946 210.36 426.402 211.828 423.788 214.441C421.175 217.055 419.707 220.599 419.707 224.295C419.707 227.991 421.175 231.535 423.788 234.148C426.402 236.762 429.946 238.23 433.642 238.23Z" fill="#CCCCCC"/>
<path d="M540.982 72.0601H714.372C718.614 72.0601 722.682 73.7452 725.682 76.7449C728.682 79.7445 730.367 83.8129 730.367 88.0551C730.367 92.2972 728.682 96.3656 725.682 99.3652C722.682 102.365 718.614 104.05 714.372 104.05H711.792V122.89C711.802 123.559 711.591 124.214 711.191 124.751C710.792 125.288 710.226 125.678 709.582 125.86C709.283 125.95 708.973 125.997 708.662 126C708.15 125.999 707.647 125.868 707.199 125.62C706.751 125.371 706.374 125.014 706.102 124.58L692.762 104.05H540.982C536.739 104.05 532.671 102.365 529.671 99.3652C526.672 96.3656 524.987 92.2972 524.987 88.0551C524.987 83.8129 526.672 79.7445 529.671 76.7449C532.671 73.7452 536.739 72.0601 540.982 72.0601ZM540.982 101.99H693.882L707.832 123.46C707.955 123.645 708.134 123.786 708.343 123.862C708.552 123.937 708.78 123.943 708.993 123.88C709.206 123.816 709.393 123.685 709.526 123.507C709.659 123.329 709.731 123.112 709.732 122.89V101.99H714.372C718.068 101.99 721.612 100.522 724.225 97.9086C726.839 95.2953 728.307 91.7508 728.307 88.0551C728.307 84.3593 726.839 80.8148 724.225 78.2015C721.612 75.5882 718.068 74.1201 714.372 74.1201H540.982C537.286 74.1201 533.741 75.5882 531.128 78.2015C528.515 80.8148 527.047 84.3593 527.047 88.0551C527.047 91.7508 528.515 95.2953 531.128 97.9086C533.741 100.522 537.286 101.99 540.982 101.99Z" fill="#CCCCCC"/>
<path d="M357.272 140.18H599.812C604.054 140.18 608.122 141.865 611.122 144.865C614.121 147.865 615.807 151.933 615.807 156.175C615.807 160.417 614.121 164.486 611.122 167.485C608.122 170.485 604.054 172.17 599.812 172.17H379.142L362.442 197.86C362.169 198.294 361.792 198.651 361.344 198.9C360.897 199.148 360.393 199.279 359.882 199.28C359.573 199.278 359.267 199.231 358.972 199.14C358.326 198.96 357.757 198.571 357.355 198.034C356.954 197.496 356.741 196.841 356.752 196.17V172.17C352.555 172.034 348.581 170.254 345.685 167.214C342.79 164.174 341.205 160.117 341.274 155.919C341.342 151.722 343.057 147.719 346.05 144.774C349.043 141.83 353.073 140.18 357.272 140.18V140.18ZM357.272 170.11H358.821V196.17C358.814 196.393 358.882 196.613 359.014 196.792C359.147 196.972 359.336 197.102 359.551 197.16C359.764 197.229 359.993 197.225 360.203 197.149C360.413 197.073 360.592 196.929 360.712 196.74L378.022 170.11H599.812C603.507 170.11 607.052 168.642 609.665 166.029C612.279 163.415 613.747 159.871 613.747 156.175C613.747 152.479 612.279 148.935 609.665 146.322C607.052 143.708 603.507 142.24 599.812 142.24H357.272C353.576 142.24 350.031 143.708 347.418 146.322C344.805 148.935 343.337 152.479 343.337 156.175C343.337 159.871 344.805 163.415 347.418 166.029C350.031 168.642 353.576 170.11 357.272 170.11H357.272Z" fill="#3F3D56"/>
<path d="M526.017 301.185C521.457 301.185 517.76 297.488 517.76 292.928C517.76 288.368 521.457 284.671 526.017 284.671C530.577 284.671 534.273 288.368 534.273 292.928C534.273 297.488 530.577 301.185 526.017 301.185Z" fill="#6930C3"/>
<path d="M501.246 301.185C496.686 301.185 492.99 297.488 492.99 292.928C492.99 288.368 496.686 284.671 501.246 284.671C505.806 284.671 509.503 288.368 509.503 292.928C509.503 297.488 505.806 301.185 501.246 301.185Z" fill="#6930C3"/>
<path d="M476.476 301.185C471.916 301.185 468.219 297.488 468.219 292.928C468.219 288.368 471.916 284.671 476.476 284.671C481.036 284.671 484.733 288.368 484.733 292.928C484.733 297.488 481.036 301.185 476.476 301.185Z" fill="#6930C3"/>
<path d="M461.142 220.21H686.872C687.994 220.21 689.069 220.656 689.862 221.449C690.656 222.243 691.101 223.318 691.102 224.44V225.18C691.101 226.302 690.656 227.377 689.862 228.171C689.069 228.964 687.994 229.41 686.872 229.41H461.142C460.021 229.408 458.946 228.962 458.153 228.169C457.36 227.376 456.914 226.301 456.912 225.18V224.44C456.914 223.319 457.36 222.244 458.153 221.451C458.946 220.658 460.021 220.212 461.142 220.21Z" fill="#CCCCCC"/>
<path d="M548.352 82.9399H707.002C708.123 82.942 709.198 83.3883 709.99 84.1812C710.783 84.974 711.23 86.0487 711.232 87.1699V87.9099C711.23 89.0312 710.783 90.1059 709.99 90.8987C709.198 91.6916 708.123 92.1379 707.002 92.14H548.352C547.231 92.1379 546.156 91.6916 545.363 90.8987C544.57 90.1059 544.124 89.0312 544.122 87.9099V87.1699C544.124 86.0487 544.57 84.974 545.363 84.1812C546.156 83.3883 547.231 82.942 548.352 82.9399Z" fill="#CCCCCC"/>
<path d="M399.212 152.09H557.862C558.983 152.092 560.057 152.538 560.85 153.331C561.643 154.124 562.089 155.199 562.091 156.32V157.06C562.089 158.181 561.643 159.256 560.85 160.049C560.057 160.841 558.983 161.288 557.862 161.29H399.212C398.091 161.287 397.018 160.841 396.227 160.048C395.436 159.255 394.991 158.18 394.991 157.06V156.32C394.991 155.2 395.436 154.125 396.227 153.332C397.018 152.539 398.091 152.092 399.212 152.09Z" fill="#6930C3"/>
<path d="M1.00003 609.06H382C382.265 609.06 382.52 608.955 382.707 608.767C382.895 608.58 383 608.325 383 608.06C383 607.795 382.895 607.54 382.707 607.353C382.52 607.165 382.265 607.06 382 607.06H1.00003C0.734802 607.06 0.480408 607.165 0.292877 607.353C0.105347 607.54 3.05176e-05 607.795 3.05176e-05 608.06C3.05176e-05 608.325 0.105347 608.58 0.292877 608.767C0.480408 608.955 0.734802 609.06 1.00003 609.06Z" fill="#3F3D56"/>
</g>
<defs>
<clipPath id="clip0">
<rect width="730.372" height="609.06" fill="white" transform="matrix(-1 0 0 1 730.372 0)"/>
</clipPath>
</defs>
</svg>
