<svg width="702" height="271" viewBox="0 0 702 271" fill="none" xmlns="http://www.w3.org/2000/svg">
<line x1="680" y1="251" x2="620" y2="251" stroke="#64DFDF" stroke-width="40" stroke-linecap="round" stroke-linejoin="round"/>
<line x1="600" y1="250" x2="500" y2="250" stroke="#64DFDF" stroke-width="10"/>
<line x1="503.175" y1="252.246" x2="432.464" y2="181.536" stroke="#64DFDF" stroke-width="10"/>
<line x1="436" y1="183" x2="-4.37114e-07" y2="183" stroke="#64DFDF" stroke-width="10"/>
<path d="M24.536 74.864C20.552 74.864 16.688 74.336 12.944 73.28C9.248 72.176 6.272 70.76 4.016 69.032L7.976 60.248C10.136 61.832 12.704 63.104 15.68 64.064C18.656 65.024 21.632 65.504 24.608 65.504C27.92 65.504 30.368 65.024 31.952 64.064C33.536 63.056 34.328 61.736 34.328 60.104C34.328 58.904 33.848 57.92 32.888 57.152C31.976 56.336 30.776 55.688 29.288 55.208C27.848 54.728 25.88 54.2 23.384 53.624C19.544 52.712 16.4 51.8 13.952 50.888C11.504 49.976 9.392 48.512 7.616 46.496C5.888 44.48 5.024 41.792 5.024 38.432C5.024 35.504 5.816 32.864 7.4 30.512C8.984 28.112 11.36 26.216 14.528 24.824C17.744 23.432 21.656 22.736 26.264 22.736C29.48 22.736 32.624 23.12 35.696 23.888C38.768 24.656 41.456 25.76 43.76 27.2L40.16 36.056C35.504 33.416 30.848 32.096 26.192 32.096C22.928 32.096 20.504 32.624 18.92 33.68C17.384 34.736 16.616 36.128 16.616 37.856C16.616 39.584 17.504 40.88 19.28 41.744C21.104 42.56 23.864 43.376 27.56 44.192C31.4 45.104 34.544 46.016 36.992 46.928C39.44 47.84 41.528 49.28 43.256 51.248C45.032 53.216 45.92 55.88 45.92 59.24C45.92 62.12 45.104 64.76 43.472 67.16C41.888 69.512 39.488 71.384 36.272 72.776C33.056 74.168 29.144 74.864 24.536 74.864ZM72.2501 54.2L65.4821 61.256V74H53.8901V23.6H65.4821V47.144L87.8021 23.6H100.762L79.8821 46.064L101.986 74H88.3781L72.2501 54.2ZM107.187 23.6H118.851V74H107.187V23.6ZM130.812 23.6H142.476V64.496H167.748V74H130.812V23.6ZM174.265 23.6H185.929V64.496H211.201V74H174.265V23.6ZM233.997 74.864C230.013 74.864 226.149 74.336 222.405 73.28C218.709 72.176 215.733 70.76 213.477 69.032L217.437 60.248C219.597 61.832 222.165 63.104 225.141 64.064C228.117 65.024 231.093 65.504 234.069 65.504C237.381 65.504 239.829 65.024 241.413 64.064C242.997 63.056 243.789 61.736 243.789 60.104C243.789 58.904 243.309 57.92 242.349 57.152C241.437 56.336 240.237 55.688 238.749 55.208C237.309 54.728 235.341 54.2 232.845 53.624C229.005 52.712 225.861 51.8 223.413 50.888C220.965 49.976 218.853 48.512 217.077 46.496C215.349 44.48 214.485 41.792 214.485 38.432C214.485 35.504 215.277 32.864 216.861 30.512C218.445 28.112 220.821 26.216 223.989 24.824C227.205 23.432 231.117 22.736 235.725 22.736C238.941 22.736 242.085 23.12 245.157 23.888C248.229 24.656 250.917 25.76 253.221 27.2L249.621 36.056C244.965 33.416 240.309 32.096 235.653 32.096C232.389 32.096 229.965 32.624 228.381 33.68C226.845 34.736 226.077 36.128 226.077 37.856C226.077 39.584 226.965 40.88 228.741 41.744C230.565 42.56 233.325 43.376 237.021 44.192C240.861 45.104 244.005 46.016 246.453 46.928C248.901 47.84 250.989 49.28 252.717 51.248C254.493 53.216 255.381 55.88 255.381 59.24C255.381 62.12 254.565 64.76 252.933 67.16C251.349 69.512 248.949 71.384 245.733 72.776C242.517 74.168 238.605 74.864 233.997 74.864Z" fill="#64DFDF"/>
</svg>
