<svg width="702" height="271" viewBox="0 0 702 271" fill="none" xmlns="http://www.w3.org/2000/svg">
<line x1="20" y1="-20" x2="80" y2="-20" transform="matrix(1 0 0 -1 0 231)" stroke="#64DFDF" stroke-width="40" stroke-linecap="round" stroke-linejoin="round"/>
<line y1="-5" x2="100" y2="-5" transform="matrix(1 -8.74228e-08 -8.74228e-08 -1 100 245)" stroke="#64DFDF" stroke-width="10"/>
<line y1="-5" x2="100" y2="-5" transform="matrix(0.707107 -0.707107 -0.707107 -0.707107 193.289 248.711)" stroke="#64DFDF" stroke-width="10"/>
<line y1="-5" x2="436" y2="-5" transform="matrix(1 -8.74228e-08 -8.74228e-08 -1 264 178)" stroke="#64DFDF" stroke-width="10"/>
<path d="M358.315 74.864C353.179 74.864 348.523 73.76 344.347 71.552C340.219 69.296 336.955 66.2 334.555 62.264C332.203 58.28 331.027 53.792 331.027 48.8C331.027 43.808 332.203 39.344 334.555 35.408C336.955 31.424 340.219 28.328 344.347 26.12C348.523 23.864 353.203 22.736 358.387 22.736C362.755 22.736 366.691 23.504 370.195 25.04C373.747 26.576 376.723 28.784 379.123 31.664L371.635 38.576C368.227 34.64 364.003 32.672 358.963 32.672C355.843 32.672 353.059 33.368 350.611 34.76C348.163 36.104 346.243 38 344.851 40.448C343.507 42.896 342.835 45.68 342.835 48.8C342.835 51.92 343.507 54.704 344.851 57.152C346.243 59.6 348.163 61.52 350.611 62.912C353.059 64.256 355.843 64.928 358.963 64.928C364.003 64.928 368.227 62.936 371.635 58.952L379.123 65.864C376.723 68.792 373.747 71.024 370.195 72.56C366.643 74.096 362.683 74.864 358.315 74.864ZM410.353 74.864C405.121 74.864 400.393 73.736 396.169 71.48C391.993 69.224 388.705 66.128 386.305 62.192C383.953 58.208 382.777 53.744 382.777 48.8C382.777 43.856 383.953 39.416 386.305 35.48C388.705 31.496 391.993 28.376 396.169 26.12C400.393 23.864 405.121 22.736 410.353 22.736C415.585 22.736 420.289 23.864 424.465 26.12C428.641 28.376 431.929 31.496 434.329 35.48C436.729 39.416 437.929 43.856 437.929 48.8C437.929 53.744 436.729 58.208 434.329 62.192C431.929 66.128 428.641 69.224 424.465 71.48C420.289 73.736 415.585 74.864 410.353 74.864ZM410.353 64.928C413.329 64.928 416.017 64.256 418.417 62.912C420.817 61.52 422.689 59.6 424.033 57.152C425.425 54.704 426.121 51.92 426.121 48.8C426.121 45.68 425.425 42.896 424.033 40.448C422.689 38 420.817 36.104 418.417 34.76C416.017 33.368 413.329 32.672 410.353 32.672C407.377 32.672 404.689 33.368 402.289 34.76C399.889 36.104 397.993 38 396.601 40.448C395.257 42.896 394.585 45.68 394.585 48.8C394.585 51.92 395.257 54.704 396.601 57.152C397.993 59.6 399.889 61.52 402.289 62.912C404.689 64.256 407.377 64.928 410.353 64.928ZM492.919 23.6V74H483.343L458.215 43.4V74H446.695V23.6H456.343L481.399 54.2V23.6H492.919ZM551.067 23.6V74H541.491L516.363 43.4V74H504.843V23.6H514.491L539.547 54.2V23.6H551.067ZM602.016 64.64V74H562.992V23.6H601.08V32.96H574.584V43.904H597.984V52.976H574.584V64.64H602.016ZM635.276 74.864C630.14 74.864 625.484 73.76 621.308 71.552C617.18 69.296 613.916 66.2 611.516 62.264C609.164 58.28 607.988 53.792 607.988 48.8C607.988 43.808 609.164 39.344 611.516 35.408C613.916 31.424 617.18 28.328 621.308 26.12C625.484 23.864 630.164 22.736 635.348 22.736C639.716 22.736 643.652 23.504 647.156 25.04C650.708 26.576 653.684 28.784 656.084 31.664L648.596 38.576C645.188 34.64 640.964 32.672 635.924 32.672C632.804 32.672 630.02 33.368 627.572 34.76C625.124 36.104 623.204 38 621.812 40.448C620.468 42.896 619.796 45.68 619.796 48.8C619.796 51.92 620.468 54.704 621.812 57.152C623.204 59.6 625.124 61.52 627.572 62.912C630.02 64.256 632.804 64.928 635.924 64.928C640.964 64.928 645.188 62.936 648.596 58.952L656.084 65.864C653.684 68.792 650.708 71.024 647.156 72.56C643.604 74.096 639.644 74.864 635.276 74.864ZM673.908 33.104H657.78V23.6H701.7V33.104H685.572V74H673.908V33.104Z" fill="#64DFDF"/>
</svg>
