<svg width="362" height="345" viewBox="0 0 362 345" fill="none" xmlns="http://www.w3.org/2000/svg">
<path fill-rule="evenodd" clip-rule="evenodd" d="M282.54 253.89V186.764C282.54 150.8 262.34 134.064 235.41 134.064C213.679 134.064 203.94 145.43 198.514 153.402V136.815H157.571C158.114 147.802 157.571 253.89 157.571 253.89H198.514V188.506C198.514 185.016 198.779 181.52 199.864 179.021C202.819 172.029 209.554 164.79 220.86 164.79C235.682 164.79 241.603 175.525 241.603 191.257V253.895H282.54V253.89ZM114.439 120.836C128.712 120.836 137.606 111.838 137.606 100.599C137.341 89.1192 128.712 80.3789 114.711 80.3789C100.709 80.3789 91.5501 89.1135 91.5501 100.599C91.5501 111.838 100.438 120.836 114.18 120.836H114.439ZM181.015 344.806C81.1124 344.806 0.119446 267.822 0.119446 172.866C0.119446 77.903 81.1124 0.925293 181.015 0.925293C280.918 0.925293 361.91 77.903 361.91 172.866C361.91 267.822 280.918 344.806 181.015 344.806ZM134.911 253.89V136.815H93.9741V253.89H134.911Z" fill="#007AB9"/>
</svg>
