<svg width="702" height="271" viewBox="0 0 702 271" fill="none" xmlns="http://www.w3.org/2000/svg">
<line x1="20" y1="-20" x2="80" y2="-20" transform="matrix(1 0 0 -1 0 231)" stroke="#64DFDF" stroke-width="40" stroke-linecap="round" stroke-linejoin="round"/>
<line y1="-5" x2="100" y2="-5" transform="matrix(1 -8.74228e-08 -8.74228e-08 -1 100 245)" stroke="#64DFDF" stroke-width="10"/>
<line y1="-5" x2="100" y2="-5" transform="matrix(0.707107 -0.707107 -0.707107 -0.707107 193.289 248.711)" stroke="#64DFDF" stroke-width="10"/>
<line x1="5" y1="-5" x2="431" y2="-5" transform="matrix(1 -8.74228e-08 -8.74228e-08 -1 264 178)" stroke="#64DFDF" stroke-width="10" stroke-linecap="round"/>
<line x1="363" y1="226" x2="691" y2="226" stroke="#80FFDB" stroke-width="10" stroke-linecap="round"/>
<path d="M476.395 23.6V74H466.819L441.691 43.4V74H430.171V23.6H439.819L464.875 54.2V23.6H476.395ZM505.96 74.576C501.88 74.576 498.208 73.736 494.944 72.056C491.728 70.328 489.208 67.952 487.384 64.928C485.56 61.904 484.648 58.472 484.648 54.632C484.648 50.792 485.56 47.36 487.384 44.336C489.208 41.312 491.728 38.96 494.944 37.28C498.208 35.552 501.88 34.688 505.96 34.688C510.04 34.688 513.688 35.552 516.904 37.28C520.12 38.96 522.64 41.312 524.464 44.336C526.288 47.36 527.2 50.792 527.2 54.632C527.2 58.472 526.288 61.904 524.464 64.928C522.64 67.952 520.12 70.328 516.904 72.056C513.688 73.736 510.04 74.576 505.96 74.576ZM505.96 65.36C508.84 65.36 511.192 64.4 513.016 62.48C514.888 60.512 515.824 57.896 515.824 54.632C515.824 51.368 514.888 48.776 513.016 46.856C511.192 44.888 508.84 43.904 505.96 43.904C503.08 43.904 500.704 44.888 498.832 46.856C496.96 48.776 496.024 51.368 496.024 54.632C496.024 57.896 496.96 60.512 498.832 62.48C500.704 64.4 503.08 65.36 505.96 65.36ZM574.163 20.576V74H563.435V69.536C560.651 72.896 556.619 74.576 551.339 74.576C547.691 74.576 544.379 73.76 541.403 72.128C538.475 70.496 536.171 68.168 534.491 65.144C532.811 62.12 531.971 58.616 531.971 54.632C531.971 50.648 532.811 47.144 534.491 44.12C536.171 41.096 538.475 38.768 541.403 37.136C544.379 35.504 547.691 34.688 551.339 34.688C556.283 34.688 560.147 36.248 562.931 39.368V20.576H574.163ZM553.283 65.36C556.115 65.36 558.467 64.4 560.339 62.48C562.211 60.512 563.147 57.896 563.147 54.632C563.147 51.368 562.211 48.776 560.339 46.856C558.467 44.888 556.115 43.904 553.283 43.904C550.403 43.904 548.027 44.888 546.155 46.856C544.283 48.776 543.347 51.368 543.347 54.632C543.347 57.896 544.283 60.512 546.155 62.48C548.027 64.4 550.403 65.36 553.283 65.36ZM622.503 54.776C622.503 54.92 622.431 55.928 622.287 57.8H592.983C593.511 60.2 594.759 62.096 596.727 63.488C598.695 64.88 601.143 65.576 604.071 65.576C606.087 65.576 607.863 65.288 609.399 64.712C610.983 64.088 612.447 63.128 613.791 61.832L619.767 68.312C616.119 72.488 610.791 74.576 603.783 74.576C599.415 74.576 595.551 73.736 592.191 72.056C588.831 70.328 586.239 67.952 584.415 64.928C582.591 61.904 581.679 58.472 581.679 54.632C581.679 50.84 582.567 47.432 584.343 44.408C586.167 41.336 588.639 38.96 591.759 37.28C594.927 35.552 598.455 34.688 602.343 34.688C606.135 34.688 609.567 35.504 612.639 37.136C615.711 38.768 618.111 41.12 619.839 44.192C621.615 47.216 622.503 50.744 622.503 54.776ZM602.415 43.184C599.871 43.184 597.735 43.904 596.007 45.344C594.279 46.784 593.223 48.752 592.839 51.248H611.919C611.535 48.8 610.479 46.856 608.751 45.416C607.023 43.928 604.911 43.184 602.415 43.184ZM640.061 74.864C636.653 74.864 633.509 74.24 630.629 72.992C627.797 71.696 625.469 69.872 623.645 67.52L630.125 59.744C632.861 63.44 635.981 65.288 639.485 65.288C644.237 65.288 646.613 62.504 646.613 56.936V32.96H628.901V23.6H658.205V56.288C658.205 62.48 656.669 67.136 653.597 70.256C650.525 73.328 646.013 74.864 640.061 74.864ZM681.966 74.576C678.75 74.576 675.606 74.192 672.534 73.424C669.462 72.608 667.014 71.6 665.19 70.4L668.934 62.336C670.662 63.44 672.75 64.352 675.198 65.072C677.646 65.744 680.046 66.08 682.398 66.08C687.15 66.08 689.526 64.904 689.526 62.552C689.526 61.448 688.878 60.656 687.582 60.176C686.286 59.696 684.294 59.288 681.606 58.952C678.438 58.472 675.822 57.92 673.758 57.296C671.694 56.672 669.894 55.568 668.358 53.984C666.87 52.4 666.126 50.144 666.126 47.216C666.126 44.768 666.822 42.608 668.214 40.736C669.654 38.816 671.718 37.328 674.406 36.272C677.142 35.216 680.358 34.688 684.054 34.688C686.79 34.688 689.502 35 692.19 35.624C694.926 36.2 697.182 37.016 698.958 38.072L695.214 46.064C691.806 44.144 688.086 43.184 684.054 43.184C681.654 43.184 679.854 43.52 678.654 44.192C677.454 44.864 676.854 45.728 676.854 46.784C676.854 47.984 677.502 48.824 678.798 49.304C680.094 49.784 682.158 50.24 684.99 50.672C688.158 51.2 690.75 51.776 692.766 52.4C694.782 52.976 696.534 54.056 698.022 55.64C699.51 57.224 700.254 59.432 700.254 62.264C700.254 64.664 699.534 66.8 698.094 68.672C696.654 70.544 694.542 72.008 691.758 73.064C689.022 74.072 685.758 74.576 681.966 74.576Z" fill="#64DFDF"/>
</svg>
