<svg width="702" height="271" viewBox="0 0 702 271" fill="none" xmlns="http://www.w3.org/2000/svg">
<path d="M40.088 74L30.368 59.96H29.792H19.64V74H7.976V23.6H29.792C34.256 23.6 38.12 24.344 41.384 25.832C44.696 27.32 47.24 29.432 49.016 32.168C50.792 34.904 51.68 38.144 51.68 41.888C51.68 45.632 50.768 48.872 48.944 51.608C47.168 54.296 44.624 56.36 41.312 57.8L52.616 74H40.088ZM39.872 41.888C39.872 39.056 38.96 36.896 37.136 35.408C35.312 33.872 32.648 33.104 29.144 33.104H19.64V50.672H29.144C32.648 50.672 35.312 49.904 37.136 48.368C38.96 46.832 39.872 44.672 39.872 41.888ZM99.9453 64.64V74H60.9213V23.6H99.0093V32.96H72.5133V43.904H95.9133V52.976H72.5133V64.64H99.9453ZM156.979 23.6L135.163 74H123.643L101.899 23.6H114.499L129.835 59.6L145.387 23.6H156.979ZM161.187 23.6H172.851V74H161.187V23.6ZM223.836 64.64V74H184.812V23.6H222.9V32.96H196.404V43.904H219.804V52.976H196.404V64.64H223.836ZM308.59 23.6L292.102 74H279.574L268.486 39.872L257.038 74H244.582L228.022 23.6H240.118L251.494 59.024L263.374 23.6H274.174L285.694 59.312L297.43 23.6H308.59ZM331.661 74.864C327.677 74.864 323.813 74.336 320.069 73.28C316.373 72.176 313.397 70.76 311.141 69.032L315.101 60.248C317.261 61.832 319.829 63.104 322.805 64.064C325.781 65.024 328.757 65.504 331.733 65.504C335.045 65.504 337.493 65.024 339.077 64.064C340.661 63.056 341.453 61.736 341.453 60.104C341.453 58.904 340.973 57.92 340.013 57.152C339.101 56.336 337.901 55.688 336.413 55.208C334.973 54.728 333.005 54.2 330.509 53.624C326.669 52.712 323.525 51.8 321.077 50.888C318.629 49.976 316.517 48.512 314.741 46.496C313.013 44.48 312.149 41.792 312.149 38.432C312.149 35.504 312.941 32.864 314.525 30.512C316.109 28.112 318.485 26.216 321.653 24.824C324.869 23.432 328.781 22.736 333.389 22.736C336.605 22.736 339.749 23.12 342.821 23.888C345.893 24.656 348.581 25.76 350.885 27.2L347.285 36.056C342.629 33.416 337.973 32.096 333.317 32.096C330.053 32.096 327.629 32.624 326.045 33.68C324.509 34.736 323.741 36.128 323.741 37.856C323.741 39.584 324.629 40.88 326.405 41.744C328.229 42.56 330.989 43.376 334.685 44.192C338.525 45.104 341.669 46.016 344.117 46.928C346.565 47.84 348.653 49.28 350.381 51.248C352.157 53.216 353.045 55.88 353.045 59.24C353.045 62.12 352.229 64.76 350.597 67.16C349.013 69.512 346.613 71.384 343.397 72.776C340.181 74.168 336.269 74.864 331.661 74.864Z" fill="#64DFDF"/>
<line x1="600" y1="250" x2="500" y2="250" stroke="#64DFDF" stroke-width="10"/>
<line x1="503.175" y1="252.246" x2="432.464" y2="181.536" stroke="#64DFDF" stroke-width="10"/>
<line x1="436" y1="183" x2="-4.37114e-07" y2="183" stroke="#64DFDF" stroke-width="10"/>
<line x1="680" y1="251" x2="620" y2="251" stroke="#64DFDF" stroke-width="40" stroke-linecap="round" stroke-linejoin="round"/>
</svg>
