<svg width="75" height="128" viewBox="0 0 75 128" fill="none" xmlns="http://www.w3.org/2000/svg">
<path fill-rule="evenodd" clip-rule="evenodd" d="M0 37.5C0 16.7893 16.7893 0 37.5 0C58.2107 0 75 16.7893 75 37.5V90.5C75 111.211 58.2107 128 37.5 128C16.7893 128 0 111.211 0 90.5V37.5ZM52 100.5C52 108.508 45.5081 115 37.5 115C29.4919 115 23 108.508 23 100.5C23 92.4919 29.4919 86 37.5 86C45.5081 86 52 92.4919 52 100.5ZM34.8787 14.8787L15.7868 33.9706C14.6152 35.1421 14.6152 37.0416 15.7868 38.2132C16.9584 39.3848 18.8579 39.3848 20.0294 38.2132L34 24.2426V75H40V24.2426L53.9706 38.2132C55.1422 39.3848 57.0416 39.3848 58.2132 38.2132C59.3848 37.0416 59.3848 35.1421 58.2132 33.9706L39.1213 14.8787C37.9497 13.7071 36.0503 13.7071 34.8787 14.8787Z" fill="white"/>
</svg>
